<!DOCTYPE svg PUBLIC "-//W3C//DTD SVG 1.1//EN" "http://www.w3.org/Graphics/SVG/1.1/DTD/svg11.dtd">
<!-- Uploaded to: SVG Repo, www.svgrepo.com, Transformed by: SVG Repo Mixer Tools -->
<svg width="800px" height="800px" viewBox="-6.4 -6.4 76.80 76.80" version="1.1" xmlns="http://www.w3.org/2000/svg" xmlns:xlink="http://www.w3.org/1999/xlink" fill="#000000">
<g id="SVGRepo_bgCarrier" stroke-width="0">
<path transform="translate(-6.4, -6.4), scale(2.4)" d="M16,30.45293813664466C18.84266911446481,29.856339055036656,20.237561469174146,26.763151321627323,22.695824929244814,25.21601237525274C25.43688990757121,23.49088874574955,29.675574201442384,23.807066231843642,31.145349582289967,20.921022385618834C32.61451240570813,18.036181354206867,30.988814713358273,14.512123905946652,29.647547783842526,11.565642919749813C28.423909079907652,8.877566373778194,26.292382649696997,6.85771992416523,23.9341622784225,5.079562485894899C21.53350320060184,3.269405196111598,19.00624214520485,1.2266588960861229,16.000000000000004,1.2750488338060677C13.01113094587325,1.3231591257906847,10.377905684638128,3.2333299799702684,8.249269133618581,5.332034165074736C6.3429609292709,7.211536330273967,5.879263995212284,9.915147883481048,4.766935985704871,12.350156252710434C3.461225526523469,15.208500076404162,0.7660863185751491,17.701049566759522,1.1757794127323251,20.816681250104605C1.60361895527293,24.070312939624824,4.143384905057362,26.74369308304009,6.8948120703960285,28.532216048799256C9.560742602795615,30.26516324158033,12.888126778007123,31.10603585275751,16,30.45293813664466" fill="#ccc7f4" strokewidth="0"/>
</g>
<g id="SVGRepo_tracerCarrier" stroke-linecap="round" stroke-linejoin="round"/>
<g id="SVGRepo_iconCarrier"> <title>com-laptop-code</title> <desc>Created with Sketch.</desc> <defs> </defs> <g id="General" stroke="none" stroke-width="1" fill="none" fill-rule="evenodd"> <g id="SLICES-64px" transform="translate(-90.000000, -300.000000)"> </g> <g id="ICONS" transform="translate(-85.000000, -295.000000)"> <g id="com-laptop-code" transform="translate(88.000000, 308.000000)"> <path d="M49,0 L7,0 C5.343,0 4,1.343 4,3 L4,32 L52,32 L52,3 C52,1.343 50.657,0 49,0" id="Fill-627" fill="#ccc7f4"> </path> <path d="M56,32 L56,35 C56,36.657 54.657,38 53,38 L3,38 C1.343,38 0,36.657 0,35 L0,32 L56,32 Z" id="Fill-628" fill="#ccc7f4"> </path> <polygon id="Fill-629" fill="#FFFFFF" points="8 28 48 28 48 4 8 4"> </polygon> <path d="M52,32 L52,3 C52,1.343 50.657,0 49,0 L7,0 C5.343,0 4,1.343 4,3 L4,32" id="Stroke-630" stroke="#6555df" stroke-width="2" stroke-linecap="round" stroke-linejoin="round"> </path> <path d="M56,32 L56,35 C56,36.657 54.657,38 53,38 L3,38 C1.343,38 0,36.657 0,35 L0,32 L56,32 Z" id="Stroke-631" stroke="#6555df" stroke-width="2" stroke-linecap="round" stroke-linejoin="round"> </path> <polygon id="Stroke-632" stroke="#6555df" stroke-width="2" stroke-linecap="round" stroke-linejoin="round" points="8 28 48 28 48 4 8 4"> </polygon> <polyline id="Stroke-633" stroke="#ccc7f4" stroke-width="2" stroke-linecap="round" stroke-linejoin="round" points="22 11 16 16 22 21"> </polyline> <polyline id="Stroke-634" stroke="#ccc7f4" stroke-width="2" stroke-linecap="round" stroke-linejoin="round" points="34 11 40 16 34 21"> </polyline> <path d="M26,24 L30,8" id="Stroke-635" stroke="#ccc7f4" stroke-width="2" stroke-linecap="round" stroke-linejoin="round"> </path> </g> </g> </g> </g>
</svg>